HIERARCHY
ROOT SpineBase
{
  OFFSET 0.000000 0.000000 0.000000
  CHANNELS 6 Xposition Yposition Zposition Zrotation Xrotation Yrotation
  JOINT SpineMid
  {
    OFFSET -0.000000 27.491573 0.000000
    CHANNELS 3 Zrotation Xrotation Yrotation
    JOINT SpineShoulder
    {
      OFFSET -0.092257 20.503138 -0.813644
      CHANNELS 3 Zrotation Xrotation Yrotation
      JOINT Neck
      {
        OFFSET -0.061310 6.809792 -0.593298
        CHANNELS 3 Zrotation Xrotation Yrotation
        JOINT Head
        {
          OFFSET 2.963924 12.958318 1.059217
          CHANNELS 3 Zrotation Xrotation Yrotation
          End Site
          {
            OFFSET 0 0 0
          }
        }
      }
      JOINT ShoulderLeft
      {
        OFFSET -11.601861 -1.929191 -5.168152
        CHANNELS 3 Zrotation Xrotation Yrotation
        JOINT ElbowLeft
        {
          OFFSET -7.723029 -18.320178 -0.941881
          CHANNELS 3 Zrotation Xrotation Yrotation
          JOINT WristLeft
          {
            OFFSET 20.781077 -2.092975 -13.567344
            CHANNELS 3 Zrotation Xrotation Yrotation
            JOINT HandLeft
            {
              OFFSET 7.779506 0.668887 -4.774779
              CHANNELS 3 Zrotation Xrotation Yrotation
              JOINT HandTipLeft
              {
                OFFSET 2.476633 0.312862 -5.817823
                CHANNELS 3 Zrotation Xrotation Yrotation
                End Site
                {
                  OFFSET 0 0 0
                }
              }
              JOINT ThumbLeft
              {
                OFFSET 0.076616 -4.176971 -0.124765
                CHANNELS 3 Zrotation Xrotation Yrotation
                End Site
                {
                  OFFSET 0 0 0
                }
              }
            }
          }
        }
      }
      JOINT ShoulderRight
      {
        OFFSET 14.692438 -2.832611 4.031292
        CHANNELS 3 Zrotation Xrotation Yrotation
        JOINT ElbowRight
        {
          OFFSET -2.738725 -14.936440 -20.065058
          CHANNELS 3 Zrotation Xrotation Yrotation
          JOINT WristRight
          {
            OFFSET -4.601789 -3.970341 -24.451100
            CHANNELS 3 Zrotation Xrotation Yrotation
            JOINT HandRight
            {
              OFFSET -1.498547 -1.384494 -7.793971
              CHANNELS 3 Zrotation Xrotation Yrotation
              JOINT HandTipRight
              {
                OFFSET -0.225628 3.543586 -3.869040
                CHANNELS 3 Zrotation Xrotation Yrotation
                End Site
                {
                  OFFSET 0 0 0
                }
              }
              JOINT ThumbRight
              {
                OFFSET -1.657862 4.174411 -2.445606
                CHANNELS 3 Zrotation Xrotation Yrotation
                End Site
                {
                  OFFSET 0 0 0
                }
              }
            }
          }
        }
      }
    }
  }
  JOINT HipLeft
  {
    OFFSET -5.814884 1.327477 -4.832812
    CHANNELS 3 Zrotation Xrotation Yrotation
    JOINT KneeLeft
    {
      OFFSET -4.298876 -28.745026 -0.379855
      CHANNELS 3 Zrotation Xrotation Yrotation
      JOINT AnkleLeft
      {
        OFFSET -2.389571 -34.886880 6.690959
        CHANNELS 3 Zrotation Xrotation Yrotation
        JOINT FootLeft
        {
          OFFSET 4.086859 -6.053990 -1.553422
          CHANNELS 3 Zrotation Xrotation Yrotation
          End Site
          {
            OFFSET 0 0 0
          }
        }
      }
    }
  }
  JOINT HipRight
  {
    OFFSET 5.407686 0.236010 -1.587816
    CHANNELS 3 Zrotation Xrotation Yrotation
    JOINT KneeRight
    {
      OFFSET -0.916781 -27.298139 2.384622
      CHANNELS 3 Zrotation Xrotation Yrotation
      JOINT AnkleRight
      {
        OFFSET -2.362260 -37.215921 7.260744
        CHANNELS 3 Zrotation Xrotation Yrotation
        JOINT FootRight
        {
          OFFSET -1.116896 -6.659329 -5.912775
          CHANNELS 3 Zrotation Xrotation Yrotation
          End Site
          {
            OFFSET 0 0 0
          }
        }
      }
    }
  }
}
MOTION
Frames: 5
Frame Time: 0.033333
23.901853 71.643962 373.008397 0.000000 0.000000 -16.127177 -0.000000 0.000000 16.127177 -0.000000 0.000000 0.000000 -0.000000 0.000000 0.000000 0.000000 0.000000 0.000000 -0.000000 0.000000 0.000000 -0.000000 0.000000 0.000000 -0.000000 0.000000 0.000000 -0.000000 0.000000 0.000000 0.000000 0.000000 0.000000 0.000000 0.000000 0.000000 -0.000000 0.000000 0.000000 -0.000000 0.000000 0.000000 -0.000000 0.000000 0.000000 -0.000000 0.000000 0.000000 0.000000 0.000000 0.000000 0.000000 0.000000 0.000000 -0.000000 0.000000 16.127177 -0.000000 0.000000 0.000000 -0.000000 0.000000 0.000000 0.000000 0.000000 0.000000 -0.000000 0.000000 16.127177 -0.000000 0.000000 0.000000 -0.000000 0.000000 0.000000 0.000000 0.000000 0.000000
23.881398 71.588563 373.007776 0.046021 -0.054163 -16.183347 -0.059294 0.039190 16.183389 -0.000000 0.000000 0.000000 -0.000000 0.000000 0.000000 0.000000 0.000000 0.000000 0.554228 -0.717299 0.278018 0.766988 1.660596 0.467503 -8.989687 -4.989181 -3.880763 5.919819 1.448605 -1.254359 0.000000 0.000000 0.000000 0.000000 0.000000 0.000000 -0.280840 -2.159068 0.787477 0.459220 1.043601 -0.509024 0.007463 -0.052818 0.015458 -0.165465 1.162878 -0.307510 0.000000 0.000000 0.000000 0.000000 0.000000 0.000000 -0.059294 0.039190 16.183389 -0.000000 0.000000 0.000000 -0.000000 0.000000 0.000000 0.000000 0.000000 0.000000 -0.059294 0.039190 16.183389 -0.000000 0.000000 0.000000 -1.523727 -0.889435 1.497232 0.000000 0.000000 0.000000
23.866108 71.555286 373.001145 0.092215 -0.102999 -16.232285 -0.117331 0.073116 16.232443 -0.000000 0.000000 0.000000 -0.000000 0.000000 0.000000 0.000000 0.000000 0.000000 1.181464 -1.107547 0.419617 1.518011 3.035057 0.936313 -17.450638 -8.955821 -7.786051 11.271740 3.580411 -2.895733 0.000000 0.000000 0.000000 0.000000 0.000000 0.000000 -0.499815 -3.308458 1.313665 0.811715 1.425989 -0.861777 0.012402 -0.087674 0.025851 -0.274649 1.954058 -0.513759 0.000000 0.000000 0.000000 0.000000 0.000000 0.000000 -0.117331 0.073116 16.232443 -0.000000 0.000000 0.000000 1.393219 0.070426 -0.308245 0.000000 0.000000 0.000000 -0.117331 0.073116 16.232443 -0.000000 0.000000 0.000000 -2.613267 -1.169728 2.502931 0.000000 0.000000 0.000000
23.855984 71.544131 372.988501 0.138626 -0.146554 -16.274174 -0.174142 0.101834 16.274506 -0.000000 0.000000 0.000000 -0.557108 -0.569227 0.172848 0.000000 0.000000 0.000000 1.881335 -1.170865 0.419219 2.243610 4.125756 1.421731 -23.780748 -11.567789 -10.650258 14.763110 5.333872 -5.150988 0.000000 0.000000 0.000000 0.000000 0.000000 0.000000 -0.681213 -3.476731 1.595342 1.055689 1.182233 -1.054084 0.014880 -0.105181 0.031336 -0.331714 2.373810 -0.621085 0.000000 0.000000 0.000000 0.000000 0.000000 0.000000 -0.174142 0.101834 16.274506 -0.000000 0.000000 0.000000 1.877594 0.056352 -0.439783 0.000000 0.000000 0.000000 -0.174142 0.101834 16.274506 0.350404 -0.852704 0.124939 -3.623871 0.056424 2.952174 0.000000 0.000000 0.000000
23.851024 71.555098 372.969847 0.185300 -0.184865 -16.309153 -0.229758 0.125389 16.309703 -0.000000 0.000000 0.000000 -0.549299 -0.885105 0.242996 0.000000 0.000000 0.000000 2.656202 -0.906260 0.269215 2.934466 4.933740 1.940531 -26.668145 -12.878142 -11.506170 15.487731 5.912021 -8.025705 0.000000 0.000000 0.000000 0.000000 0.000000 0.000000 -0.835442 -2.672282 1.642057 1.194013 0.324596 -1.084048 0.014931 -0.105691 0.032001 -0.338836 2.422484 -0.630703 0.000000 0.000000 0.000000 0.000000 0.000000 0.000000 -0.229758 0.125389 16.309703 -0.000000 0.000000 0.000000 2.221010 0.010409 -0.555855 0.000000 0.000000 0.000000 -0.229758 0.125389 16.309703 0.407617 -0.998508 0.146243 -3.906799 1.237914 2.978362 0.000000 0.000000 0.000000
